<svg xmlns="http://www.w3.org/2000/svg" viewBox="0 0 108.01 108" fill="#f82854" xmlns:v="https://vecta.io/nano"><path d="M107.5 25.16H97.45v3.13h6.93v76.08H28.3v-6.85h-3.13v9.98h82.34V25.16z"/><path d="M107.5 25.16v-.5H96.95v4.13h6.93v75.08H28.8v-6.85h-4.13V108H108V24.66h-.5v.5h-.5V107H25.67v-8.98h2.13v6.85h77.08V27.8h-6.93v-2.13h9.56v-.5h-.5.5zM94.35 11.94h-11.4v3.14h8.27v76.07H15.14v-8.2H12V94.3h82.35V11.94z"/><path d="M94.35 11.94v-.5h-11.9v4.14h8.27v75.07H15.64v-8.2H11.5V94.8h83.35V11.44h-.5v.5h-.5V93.8H12.5V83.44h2.14v8.2H91.7V14.58h-8.27v-2.14h10.9v-.5h-.5.5zM31.25 64a25.53 25.53 0 0 0 21.68-1.68l-1.55-2.73A22.4 22.4 0 1 1 62 34.41l-4.15.76 7.6 8.92 3.93-11-4.37.75A25.52 25.52 0 1 0 31.25 64z"/><path d="M31.25 64l-.18.46a26 26 0 0 0 22.1-1.71l.44-.25-2-3.6-.44.25a21.89 21.89 0 0 1-32.76-19.08 21.89 21.89 0 0 1 43.06-5.55l.48-.12-.1-.5-5 .92 8.72 10.24 4.5-12.67-5.08.94.1.5.5-.13a26.07 26.07 0 0 0-25.2-19.63 26 26 0 0 0-9.26 50.35l.18-.46.17-.47a25.08 25.08 0 0 1-16.19-23.42 24.77 24.77 0 0 1 1.63-8.85A25 25 0 0 1 64.56 34l.1.45 3.9-.7-3.35 9.4-6.47-7.6 3.83-.7-.14-.52a22.89 22.89 0 1 0-30.25 27.19A23.1 23.1 0 0 0 40.31 63a22.85 22.85 0 0 0 11.31-3l-.24-.44-.44.25 1.55 2.72.44-.24-.25-.44a25 25 0 0 1-21.26 1.65zM79.7.5H.5v79.2h79.2zm-3.13 76.08H3.63V3.63h73z"/><path d="M79.7.5V0H0v80.2h80.2V0h-.5v.5h-.5v78.7H1V1h78.7V.5zm-3.13 76.08v-.5H4.13V4.13h72v72.45h1V3.13h-74v74h74v-.5z"/></svg>