<svg xmlns="http://www.w3.org/2000/svg" viewBox="0 0 1626.4 267.5" xmlns:v="https://vecta.io/nano"><path d="M122.2 201.1c-12.7 4.8-27 7.2-43.1 7.2-52.7 0-79.1-25.5-79.1-76.5 0-48.3 26.4-72.4 79.1-72.4 16.1 0 30.5 2.4 43.1 7.2v24.6C109.5 85.7 95.8 83 81.1 83c-35.3 0-52.9 16.3-52.9 48.8 0 35.3 17.6 52.9 52.9 52.9 14.7 0 28.4-2.7 41.1-8.2v24.6zm14.2-67.1c0-49.8 24.6-74.7 73.7-74.7 48.4 0 72.6 24.9 72.6 74.7 0 49.5-24.2 74.2-72.6 74.2-46.9.1-71.5-24.7-73.7-74.2zm73.7 50.6c29.6 0 44.4-17.1 44.4-51.2 0-33.6-14.8-50.4-44.4-50.4-30.3 0-45.5 16.8-45.5 50.4 0 34.2 15.2 51.2 45.5 51.2zm94 22.6V60.4h28.2l49.8 111.4 48.8-111.4h27.2v146.9h-25.2V104.9l-39.8 102.3h-23.2l-40.7-102.3v102.3h-25.1zm184.8 0V60.4h28.3L567 171.8l48.8-111.4H643v146.9h-25.2V104.9L578 207.2h-23.2l-40.7-102.3v102.3h-25.2zM809.5 60.4l-64.4 146.9h-29.3L654.2 60.4h32.3L732 172.8l45.4-112.5h32.1v.1zm-30.4 146.8l62.3-146.9h29.3l63.7 146.9h-29.3l-18.5-40.1h-46l9.3-23.6h29.5l-24-55.1L807 207.2h-27.9zm159-57.7V60.4h27.2v89.1c0 23.4 12 35.1 35.9 35.1s35.9-11.7 35.9-35.1V60.4h27.2v89.1c0 39.2-21.1 58.8-63.2 58.8s-63-19.6-63-58.8zm181.3-89.1v123.2h68.6v23.6h-95.8V60.4h27.2zm165.2 0V84h-42.1v123.2h-27.2V84h-42.1V60.4h111.4zm26.3 4.8c1.7 0 2.9.3 3.7 1s1.2 1.7 1.2 3-.3 2.2-1.1 2.8c-.7.6-1.6.9-2.6 1l4 6.2h-2.3l-3.8-6h-2.3v6h-2.2V65.1l5.4.1zm-1 6.2h1.4c.4 0 .8-.1 1.2-.3.3-.1.6-.4.8-.7s.3-.7.3-1.3c0-.5-.1-.9-.3-1.1-.2-.3-.4-.5-.7-.6l-1-.3c-.4 0-.8-.1-1.1-.1h-2.9v4.5l2.3-.1zm.2-11.2a12.04 12.04 0 0 0-12 12 12.04 12.04 0 0 0 12 12 12.04 12.04 0 0 0 12-12c0-6.6-5.3-12-12-12zm0 22.3c-5.7 0-10.3-4.6-10.3-10.3s4.6-10.3 10.3-10.3 10.3 4.6 10.3 10.3-4.6 10.3-10.3 10.3z" fill="#132e53"/><path d="M1508.3 0l-118.1 68.2v131.1l118.1 68.2 118.1-68.2V68.2L1508.3 0zm97.7 187.6l-97.7 56.4-97.7-56.4V80l97.7-56.4L1606 80v107.6zm-104.5 29.2c0 1-1.1 1.6-2 1.1l-68.7-39.7c-1.2-.7-2-2-2-3.4V98c0-1 1.1-1.6 2-1.1l68.7 39.7c1.2.7 2 2 2 3.4v76.8zm75.3-130.4l-65.8 38c-1.6.9-3.6.9-5.2 0l-65.8-38a1.32 1.32 0 0 1 0-2.3l65.8-38c1.6-.9 3.6-.9 5.2 0l65.8 38c.8.6.8 1.8 0 2.3zm0 97l-59.7 34.4c-.9.5-2-.1-2-1.1v-68.9c0-1 1.1-1.6 2-1.1l59.7 34.4c.8.6.8 1.8 0 2.3z" fill="#ff4a6a"/></svg>