<svg xmlns="http://www.w3.org/2000/svg" viewBox="0 0 144.94 107.38" fill="#f82854" xmlns:v="https://vecta.io/nano"><path d="M124.84 31.06C123.28 13.92 110.37.4 94.35 0h-.78c-13 0-24.16 8.7-29 21.16a26.38 26.38 0 0 0-10.83-2.59h-.66A26.78 26.78 0 0 0 27 39.86a21.11 21.11 0 0 0-5.24-.74h-.52A21.29 21.29 0 0 0 0 60c-.27 11.73 10.46 22.5 22.2 22.83h2.5l18.8-.1v-3.8L22.3 79c-9.72-.26-18.7-9.5-18.48-19a17.59 17.59 0 0 1 17.43-17.08h.44a17.1 17.1 0 0 1 4.3.6l3.9 1.08.84-4A23.1 23.1 0 0 1 53.1 22.37h.56a22.37 22.37 0 0 1 9.26 2.21l3.72 1.8 1.5-3.85C72.54 11.16 82.52 3.8 93.57 3.8h.68c13.88.33 25.4 12.2 26.8 27.6l.3 3.14 3.14.3c9.63.92 16.94 10.75 16.64 22.4-.25 11.86-8.47 21.52-18.3 21.52h-3l-16.22.08v3.8l19.22-.07c11.92 0 21.8-11.24 22.12-25.24.35-13.76-8.57-25.16-20.1-26.26zM74.86 61.1a1.5 1.5 0 0 0-1.5-1.5 20.6 20.6 0 0 0-20.59 20.6 1.5 1.5 0 0 0 3 0 17.62 17.62 0 0 1 17.59-17.59 1.5 1.5 0 0 0 1.5-1.5zM88 58.7V44.4a13.94 13.94 0 0 0-3.9-9.72 13.07 13.07 0 0 0-9.41-4h-2.4a13.08 13.08 0 0 0-9.42 4A13.94 13.94 0 0 0 59 44.39v14.3a26.51 26.51 0 1 0 29 0zm-14.5 45.68a23.52 23.52 0 1 1 16.61-6.89 23.46 23.46 0 0 1-16.64 6.89zm-1.22-70.75h2.38a10.07 10.07 0 0 1 7.28 3.15 11 11 0 0 1 3 7.61V57a26.39 26.39 0 0 0-23 0V44.4a10.93 10.93 0 0 1 3-7.61 10.05 10.05 0 0 1 7.34-3.15zm1.2 39.97a4.76 4.76 0 0 0-2.64 8.74v4.17a1.64 1.64 0 0 0 1.64 1.64h2a1.64 1.64 0 0 0 1.64-1.64v-4.17a4.76 4.76 0 0 0-2.63-8.74z"/></svg>