<svg xmlns="http://www.w3.org/2000/svg" xmlns:xlink="http://www.w3.org/1999/xlink" viewBox="0 0 149.3 39.3"><path d="M0 0v36.9h17.1V15.2H25v21.7h17.9V.1z" fill="#005cab"/><g fill="#231f20"><path d="M52 36.1v-18h4.1l8.2 10.7-.3-10.7h4v18h-3.2l-9-12.2c.1 2.4.2 12.2.2 12.2h-4zm22.2-5.6c.1 1.8 1.9 2.7 3.9 2.6 1.7-.1 2-1.1 3.2-1.4l1.5 2.6c-1.2 1.1-3.4 2-5.3 2-4.7 0-7.3-2.7-7.3-7 0-3.5 2.2-7.3 7-7.3 4.4 0 6.1 3.5 6.1 6.9 0 .7-.1 1.4-.1 1.7l-9-.1zm5.1-2.9c0-1-.5-2.8-2.4-2.8-1.8 0-2.6 1.7-2.7 2.8h5.1zm10.3-8.7V22h2.6v3.3h-2.6v5.8c0 1.4.4 2 1.4 2 .5 0 1.5 0 1.8-.1v2.7c-.4.2-2 .3-3 .3-1.2 0-2.1-.4-2.7-1-.7-.7-1-1.8-1-3.4v-6.3h-1.5V22H86v-3.1h3.6zm9.9 12.6L98 36.1h-4l6.7-18.2h4.4l7.2 18.2h-4.2l-1.8-4.7-6.8.1zm5.7-3.2l-2.2-7.4h-.1l-2.1 7.4h4.4z"/><use xlink:href="#B"/><use xlink:href="#B" x="16"/><path d="M145.6 21.3h-2.8v1.1h.9v2.5h1v-2.5h.9zm2.7.1l-.6 1.3-.8-1.3h-1v3.5h.9v-1.8l.8 1.2.8-1.2v1.8h.9v-3.5z"/></g><defs><path id="B" d="M113 22.3h3.7l.2 1.7h.1s1.9-2.1 4.6-2c3 0 5.7 2.4 5.7 6.4 0 4.6-3.2 6.7-6.2 6.7-1.7 0-3-.6-3.6-1.4h-.3v5.7h-4l-.2-17.1zm4.3 7.4c0 .3 0 .6.1.9.3 1.1 1.5 1.9 2.9 1.9 2.1 0 3.4-1.5 3.4-3.7 0-2.1-1.1-3.7-3.3-3.7-1.4 0-2.6.9-3 2.1-.1.2-.1.5-.1.7v1.8z"/></defs></svg>