<svg xmlns="http://www.w3.org/2000/svg" viewBox="0 0 113.55 95.32" fill="#f82854" xmlns:v="https://vecta.io/nano"><path d="M107.75 66.4H5.8A5.8 5.8 0 0 1 0 60.62V5.8A5.8 5.8 0 0 1 5.8 0h102a5.8 5.8 0 0 1 5.8 5.8v54.82a5.8 5.8 0 0 1-5.85 5.79zM5.8 4.68A1.12 1.12 0 0 0 4.68 5.8v54.82a1.12 1.12 0 0 0 1.12 1.11h102a1.11 1.11 0 0 0 1.11-1.11V5.8a1.12 1.12 0 0 0-1.11-1.12zM44.65 51a2.38 2.38 0 0 1-1.27-2.08V17.5a2.34 2.34 0 0 1 3.7-1.9l22.1 15.7a2.35 2.35 0 0 1 0 3.82l-22.1 15.7a2.14 2.14 0 0 1-2.43.17zm3.42-29v22.38l15.7-11.17zm63.13 61.7H66.45a9.27 9.27 0 0 0-17.93 0H2.34a2.35 2.35 0 0 0 0 4.69h46.18a9.26 9.26 0 0 0 17.93 0h44.76a2.35 2.35 0 0 0 0-4.69zm-53.73 6.93a4.59 4.59 0 1 1 4.59-4.58 4.59 4.59 0 0 1-4.59 4.58z"/></svg>