<svg xmlns="http://www.w3.org/2000/svg" viewBox="0 0 103.7 103.7" fill="#f82854" xmlns:v="https://vecta.io/nano"><path d="M75.46 92.7H29.83V75.3a1.6 1.6 0 1 0-3.19 0v19a1.51 1.51 0 0 0 1.6 1.6H75.3a1.51 1.51 0 0 0 1.59-1.6 1.39 1.39 0 0 0-1.44-1.61zM97.32 0H6.38A6.4 6.4 0 0 0 0 6.38V74a6.4 6.4 0 0 0 6.38 6.38h12.45v21.7a1.5 1.5 0 0 0 1.59 1.59h62.86a1.5 1.5 0 0 0 1.6-1.59V80.4h12.44a6.4 6.4 0 0 0 6.38-6.4V6.38A6.4 6.4 0 0 0 97.32 0zm0 3.2a3.2 3.2 0 0 1 3.19 3.19v7.5H3.2V6.4A3.21 3.21 0 0 1 6.39 3.2zM22 100.5V30.63h46.9V41.8a1.51 1.51 0 0 0 1.6 1.6h11.2v57.1zm57.43-60.3H72.1v-7.34zm17.87 37H84.88V41.64a1.14 1.14 0 0 0-.48-1c-13.56-13.36-12.92-13.2-13.88-13.2h-50.1A1.5 1.5 0 0 0 18.83 29v48.22H6.38A3.21 3.21 0 0 1 3.19 74V17h97.32v57a3.2 3.2 0 0 1-3.19 3.22z"/><circle cx="11.81" cy="8.46" r="2.87"/><circle cx="23.13" cy="8.46" r="2.87"/><circle cx="34.46" cy="8.46" r="2.87"/><path d="M50.58 10.05h44.2a1.51 1.51 0 0 0 1.6-1.59 1.51 1.51 0 0 0-1.6-1.6h-44.2A1.51 1.51 0 0 0 49 8.46a1.51 1.51 0 0 0 1.58 1.59zM63.5 80.57a5.1 5.1 0 0 0-2.23-.48 3.67 3.67 0 0 0-2.24.64l-2.4-2.07a6.88 6.88 0 0 0 .36-1.92 4.79 4.79 0 0 0-9.58 0 2 2 0 0 0 .16 1l-7.18 4a4.94 4.94 0 0 0-3.4-1.49A4.79 4.79 0 1 0 41.8 85v-.48l7.5-4.15a5 5 0 0 0 3 1.12 3.62 3.62 0 0 0 2.23-.64L57 83a4.06 4.06 0 0 0-.32 1.92 4.79 4.79 0 0 0 9.57 0 4.26 4.26 0 0 0-.52-1.92l5.1-4.78a4.4 4.4 0 0 0 1.43.16 4.79 4.79 0 1 0-4.78-4.79 5.36 5.36 0 0 0 .8 2.71zM37 86.63A1.6 1.6 0 1 1 38.61 85 1.6 1.6 0 0 1 37 86.63zm13.73-9.9a1.6 1.6 0 0 1 3.19 0 1.45 1.45 0 0 1-.48 1.12h0a1.45 1.45 0 0 1-1.12.48 1.5 1.5 0 0 1-1.58-1.6zm10.68 9.73a1.5 1.5 0 0 1-1.59-1.59 1.45 1.45 0 0 1 .48-1.12h0a1.45 1.45 0 0 1 1.11-.48 1.51 1.51 0 0 1 1.6 1.6 1.59 1.59 0 0 1-1.59 1.59zM72.1 72a1.6 1.6 0 1 1-1.59 1.6A1.72 1.72 0 0 1 72.1 72z"/><path d="M43.4 67.5a15.07 15.07 0 0 0 11-4.63 1.54 1.54 0 0 0 0-2.23l-8.77-8.78 8.77-8.77a1.55 1.55 0 0 0 0-2.24A15.68 15.68 0 0 0 32.23 63a16.24 16.24 0 0 0 11.17 4.49zm-8.78-24.4A12.62 12.62 0 0 1 51.05 42l-8.77 8.78a1.54 1.54 0 0 0 0 2.23l8.77 8.77a12.5 12.5 0 0 1-16.43-1.11 12.24 12.24 0 0 1 0-17.59zM50.74 53l8.45 8.45a1.61 1.61 0 0 0 2.39-.15 15.8 15.8 0 0 0 0-18.83 1.6 1.6 0 0 0-2.39-.16l-8.45 8.46a1.54 1.54 0 0 0 0 2.23zM60 46a12.89 12.89 0 0 1 0 11.81l-5.9-5.9z"/></svg>